<svg xmlns="http://www.w3.org/2000/svg" width="80" height="80" viewBox="0 0 80 80">
  <g id="insta" transform="translate(-372 -888)">
    <circle id="Ellipse_9" data-name="Ellipse 9" cx="40" cy="40" r="40" transform="translate(372 888)" fill="#734838"/>
    <path id="insta-2" data-name="insta" d="M13.334,20A6.666,6.666,0,1,1,20,26.667,6.666,6.666,0,0,1,13.334,20m-3.6,0A10.27,10.27,0,1,0,20,9.73,10.27,10.27,0,0,0,9.73,20M28.276,9.323a2.4,2.4,0,1,0,2.4-2.4,2.4,2.4,0,0,0-2.4,2.4M11.919,36.279a11.048,11.048,0,0,1-3.714-.688,6.221,6.221,0,0,1-2.3-1.5,6.182,6.182,0,0,1-1.5-2.3,11.048,11.048,0,0,1-.688-3.714C3.624,25.974,3.6,25.341,3.6,20s.021-5.973.116-8.082A11.1,11.1,0,0,1,4.409,8.2,6.221,6.221,0,0,1,5.9,5.9a6.175,6.175,0,0,1,2.3-1.5,11.048,11.048,0,0,1,3.714-.688C14.027,3.622,14.661,3.6,20,3.6s5.973.021,8.082.116a11.1,11.1,0,0,1,3.714.688,6.2,6.2,0,0,1,2.3,1.5,6.208,6.208,0,0,1,1.5,2.3,11.047,11.047,0,0,1,.688,3.714c.1,2.11.116,2.742.116,8.082s-.019,5.973-.116,8.082a11.089,11.089,0,0,1-.688,3.714,6.622,6.622,0,0,1-3.8,3.795,11.048,11.048,0,0,1-3.714.688c-2.108.1-2.742.116-8.082.116s-5.973-.019-8.081-.116M11.754.121A14.67,14.67,0,0,0,6.9,1.05,9.814,9.814,0,0,0,3.357,3.357,9.787,9.787,0,0,0,1.05,6.9a14.67,14.67,0,0,0-.929,4.855C.023,13.887,0,14.569,0,20s.023,6.113.121,8.246A14.67,14.67,0,0,0,1.05,33.1a9.779,9.779,0,0,0,2.307,3.543A9.808,9.808,0,0,0,6.9,38.95a14.679,14.679,0,0,0,4.855.929c2.134.1,2.814.121,8.246.121s6.113-.023,8.246-.121A14.67,14.67,0,0,0,33.1,38.95a10.226,10.226,0,0,0,5.85-5.85,14.629,14.629,0,0,0,.929-4.855c.1-2.134.12-2.814.12-8.246s-.023-6.113-.12-8.246A14.67,14.67,0,0,0,38.95,6.9a9.835,9.835,0,0,0-2.307-3.543A9.808,9.808,0,0,0,33.1,1.05,14.646,14.646,0,0,0,28.247.121C26.115.024,25.433,0,20,0s-6.113.023-8.247.121" transform="translate(392.001 908)" fill="#d7d9d9"/>
  </g>
</svg>
