<svg xmlns="http://www.w3.org/2000/svg" xmlns:xlink="http://www.w3.org/1999/xlink" width="430" height="80" viewBox="0 0 430 80">
  <defs>
    <linearGradient id="linear-gradient" x1="0.5" x2="0.5" y2="1" gradientUnits="objectBoundingBox">
      <stop offset="0" stop-color="#734838"/>
      <stop offset="1" stop-color="#734838"/>
    </linearGradient>
  </defs>
  <g id="Social_icons" data-name="Social icons" transform="translate(-197 -888)">
    <g id="Social_icons-2" data-name="Social icons" transform="translate(197 888)">
      <circle id="Ellipse_4" data-name="Ellipse 4" cx="40" cy="40" r="40" transform="translate(175)" fill="url(#linear-gradient)"/>
      <circle id="Ellipse_5" data-name="Ellipse 5" cx="40" cy="40" r="40" fill="#734838"/>
      <circle id="Ellipse_6" data-name="Ellipse 6" cx="40" cy="40" r="40" transform="translate(350)" fill="#734838"/>
    </g>
    <path id="twitter" d="M49.231,6.735a21.043,21.043,0,0,1-5.815,1.594,10.037,10.037,0,0,0,4.44-5.578,20.169,20.169,0,0,1-6.4,2.443A10.092,10.092,0,0,0,24,12.1a10.392,10.392,0,0,0,.234,2.3A28.566,28.566,0,0,1,3.428,3.84a10.108,10.108,0,0,0,3.1,13.489,9.969,9.969,0,0,1-4.56-1.243V16.2a10.138,10.138,0,0,0,8.086,9.917,10.074,10.074,0,0,1-2.646.332A8.923,8.923,0,0,1,5.5,26.274,10.188,10.188,0,0,0,14.929,33.3a20.277,20.277,0,0,1-12.514,4.3A18.9,18.9,0,0,1,0,37.471,28.412,28.412,0,0,0,15.483,42c18.572,0,28.726-15.385,28.726-28.72,0-.446-.015-.877-.037-1.3A20.135,20.135,0,0,0,49.231,6.735Z" transform="translate(562 906)" fill="#d7d9d9"/>
    <path id="insta" d="M13.334,20A6.666,6.666,0,1,1,20,26.667,6.666,6.666,0,0,1,13.334,20m-3.6,0A10.27,10.27,0,1,0,20,9.73,10.27,10.27,0,0,0,9.73,20M28.276,9.323a2.4,2.4,0,1,0,2.4-2.4,2.4,2.4,0,0,0-2.4,2.4M11.919,36.279a11.048,11.048,0,0,1-3.714-.688,6.221,6.221,0,0,1-2.3-1.5,6.182,6.182,0,0,1-1.5-2.3,11.048,11.048,0,0,1-.688-3.714C3.624,25.974,3.6,25.341,3.6,20s.021-5.973.116-8.082A11.1,11.1,0,0,1,4.409,8.2,6.221,6.221,0,0,1,5.9,5.9a6.175,6.175,0,0,1,2.3-1.5,11.048,11.048,0,0,1,3.714-.688C14.027,3.622,14.661,3.6,20,3.6s5.973.021,8.082.116a11.1,11.1,0,0,1,3.714.688,6.2,6.2,0,0,1,2.3,1.5,6.208,6.208,0,0,1,1.5,2.3,11.047,11.047,0,0,1,.688,3.714c.1,2.11.116,2.742.116,8.082s-.019,5.973-.116,8.082a11.089,11.089,0,0,1-.688,3.714,6.622,6.622,0,0,1-3.8,3.795,11.048,11.048,0,0,1-3.714.688c-2.108.1-2.742.116-8.082.116s-5.973-.019-8.081-.116M11.754.121A14.67,14.67,0,0,0,6.9,1.05,9.814,9.814,0,0,0,3.357,3.357,9.787,9.787,0,0,0,1.05,6.9a14.67,14.67,0,0,0-.929,4.855C.023,13.887,0,14.569,0,20s.023,6.113.121,8.246A14.67,14.67,0,0,0,1.05,33.1a9.779,9.779,0,0,0,2.307,3.543A9.808,9.808,0,0,0,6.9,38.95a14.679,14.679,0,0,0,4.855.929c2.134.1,2.814.121,8.246.121s6.113-.023,8.246-.121A14.67,14.67,0,0,0,33.1,38.95a10.226,10.226,0,0,0,5.85-5.85,14.629,14.629,0,0,0,.929-4.855c.1-2.134.12-2.814.12-8.246s-.023-6.113-.12-8.246A14.67,14.67,0,0,0,38.95,6.9a9.835,9.835,0,0,0-2.307-3.543A9.808,9.808,0,0,0,33.1,1.05,14.646,14.646,0,0,0,28.247.121C26.115.024,25.433,0,20,0s-6.113.023-8.247.121" transform="translate(392.001 908)" fill="#d7d9d9"/>
    <path id="fb" d="M24,13.75H16.5v-5A2.5,2.5,0,0,1,19,6.25h2.5V0h-5A7.5,7.5,0,0,0,9,7.5v6.25H4V20H9V40h7.5V20h5Z" transform="translate(224 908)" fill="#d7d9d9" fill-rule="evenodd"/>
  </g>
</svg>
