<svg xmlns="http://www.w3.org/2000/svg" width="80" height="80" viewBox="0 0 80 80">
  <g id="Twitter" transform="translate(-547 -888)">
    <circle id="Ellipse_10" data-name="Ellipse 10" cx="40" cy="40" r="40" transform="translate(547 888)" fill="#734838"/>
    <path id="twitter-2" data-name="twitter" d="M49.231,6.735a21.043,21.043,0,0,1-5.815,1.594,10.037,10.037,0,0,0,4.44-5.578,20.169,20.169,0,0,1-6.4,2.443A10.092,10.092,0,0,0,24,12.1a10.392,10.392,0,0,0,.234,2.3A28.566,28.566,0,0,1,3.428,3.84a10.108,10.108,0,0,0,3.1,13.489,9.969,9.969,0,0,1-4.56-1.243V16.2a10.138,10.138,0,0,0,8.086,9.917,10.074,10.074,0,0,1-2.646.332A8.923,8.923,0,0,1,5.5,26.274,10.188,10.188,0,0,0,14.929,33.3a20.277,20.277,0,0,1-12.514,4.3A18.9,18.9,0,0,1,0,37.471,28.412,28.412,0,0,0,15.483,42c18.572,0,28.726-15.385,28.726-28.72,0-.446-.015-.877-.037-1.3A20.135,20.135,0,0,0,49.231,6.735Z" transform="translate(562 906)" fill="#d7d9d9"/>
  </g>
</svg>
